<mxfile host="app.diagrams.net" modified="2023-09-03T17:56:49.850Z" agent="Mozilla/5.0 (Windows NT 10.0; Win64; x64) AppleWebKit/537.36 (KHTML, like Gecko) Chrome/116.0.0.0 Safari/537.36" etag="e8hXNVXHgUjNhjzqC79B" version="21.7.2" type="device">
  <diagram name="Page-1" id="2YBvvXClWsGukQMizWep">
    <mxGraphModel dx="574" dy="303" grid="1" gridSize="10" guides="1" tooltips="1" connect="1" arrows="1" fold="1" page="1" pageScale="1" pageWidth="850" pageHeight="1100" math="0" shadow="0">
      <root>
        <mxCell id="0" />
        <mxCell id="1" parent="0" />
        <mxCell id="aM9ryv3xv72pqoxQDRHE-1" value="customer" style="shape=umlLifeline;perimeter=lifelinePerimeter;whiteSpace=wrap;html=1;container=0;dropTarget=0;collapsible=0;recursiveResize=0;outlineConnect=0;portConstraint=eastwest;newEdgeStyle={&quot;edgeStyle&quot;:&quot;elbowEdgeStyle&quot;,&quot;elbow&quot;:&quot;vertical&quot;,&quot;curved&quot;:0,&quot;rounded&quot;:0};" parent="1" vertex="1">
          <mxGeometry x="70" y="40" width="100" height="420" as="geometry" />
        </mxCell>
        <mxCell id="aM9ryv3xv72pqoxQDRHE-2" value="" style="html=1;points=[];perimeter=orthogonalPerimeter;outlineConnect=0;targetShapes=umlLifeline;portConstraint=eastwest;newEdgeStyle={&quot;edgeStyle&quot;:&quot;elbowEdgeStyle&quot;,&quot;elbow&quot;:&quot;vertical&quot;,&quot;curved&quot;:0,&quot;rounded&quot;:0};" parent="aM9ryv3xv72pqoxQDRHE-1" vertex="1">
          <mxGeometry x="45" y="70" width="10" height="320" as="geometry" />
        </mxCell>
        <mxCell id="aM9ryv3xv72pqoxQDRHE-5" value="shop" style="shape=umlLifeline;perimeter=lifelinePerimeter;whiteSpace=wrap;html=1;container=0;dropTarget=0;collapsible=0;recursiveResize=0;outlineConnect=0;portConstraint=eastwest;newEdgeStyle={&quot;edgeStyle&quot;:&quot;elbowEdgeStyle&quot;,&quot;elbow&quot;:&quot;vertical&quot;,&quot;curved&quot;:0,&quot;rounded&quot;:0};" parent="1" vertex="1">
          <mxGeometry x="230" y="40" width="100" height="420" as="geometry" />
        </mxCell>
        <mxCell id="aM9ryv3xv72pqoxQDRHE-6" value="" style="html=1;points=[];perimeter=orthogonalPerimeter;outlineConnect=0;targetShapes=umlLifeline;portConstraint=eastwest;newEdgeStyle={&quot;edgeStyle&quot;:&quot;elbowEdgeStyle&quot;,&quot;elbow&quot;:&quot;vertical&quot;,&quot;curved&quot;:0,&quot;rounded&quot;:0};" parent="aM9ryv3xv72pqoxQDRHE-5" vertex="1">
          <mxGeometry x="45" y="70" width="10" height="320" as="geometry" />
        </mxCell>
        <mxCell id="bnWEPdx6frjfCiIGxj0P-4" value="" style="endArrow=block;endFill=1;html=1;edgeStyle=orthogonalEdgeStyle;align=left;verticalAlign=top;rounded=0;" parent="1" edge="1">
          <mxGeometry x="-1" relative="1" as="geometry">
            <mxPoint x="125" y="119.99999999999989" as="sourcePoint" />
            <mxPoint x="275" y="124.99999999999989" as="targetPoint" />
            <Array as="points">
              <mxPoint x="125" y="125" />
            </Array>
          </mxGeometry>
        </mxCell>
        <mxCell id="bnWEPdx6frjfCiIGxj0P-8" value="&lt;font style=&quot;font-size: 9px;&quot;&gt;browse category&lt;/font&gt;" style="text;html=1;align=center;verticalAlign=middle;resizable=0;points=[];autosize=1;strokeColor=none;fillColor=none;" parent="1" vertex="1">
          <mxGeometry x="155" y="100" width="90" height="30" as="geometry" />
        </mxCell>
        <mxCell id="bnWEPdx6frjfCiIGxj0P-9" value="" style="endArrow=open;endSize=12;dashed=1;html=1;rounded=0;" parent="1" edge="1">
          <mxGeometry width="160" relative="1" as="geometry">
            <mxPoint x="275" y="150" as="sourcePoint" />
            <mxPoint x="125" y="150" as="targetPoint" />
          </mxGeometry>
        </mxCell>
        <mxCell id="bnWEPdx6frjfCiIGxj0P-11" value="&lt;font style=&quot;font-size: 9px;&quot;&gt;show available categories&lt;/font&gt;" style="text;html=1;align=center;verticalAlign=middle;resizable=0;points=[];autosize=1;strokeColor=none;fillColor=none;" parent="1" vertex="1">
          <mxGeometry x="135" y="120" width="130" height="30" as="geometry" />
        </mxCell>
        <mxCell id="bnWEPdx6frjfCiIGxj0P-13" value="" style="endArrow=block;endFill=1;html=1;edgeStyle=orthogonalEdgeStyle;align=left;verticalAlign=top;rounded=0;" parent="1" edge="1">
          <mxGeometry x="-1" relative="1" as="geometry">
            <mxPoint x="125" y="179.6" as="sourcePoint" />
            <mxPoint x="275" y="179.6" as="targetPoint" />
            <Array as="points">
              <mxPoint x="250" y="179.6" />
              <mxPoint x="250" y="179.6" />
            </Array>
          </mxGeometry>
        </mxCell>
        <mxCell id="bnWEPdx6frjfCiIGxj0P-14" value="&lt;font style=&quot;font-size: 9px;&quot;&gt;view products&lt;/font&gt;" style="text;html=1;align=center;verticalAlign=middle;resizable=0;points=[];autosize=1;strokeColor=none;fillColor=none;" parent="1" vertex="1">
          <mxGeometry x="160" y="150" width="80" height="30" as="geometry" />
        </mxCell>
        <mxCell id="bnWEPdx6frjfCiIGxj0P-15" value="" style="endArrow=open;endSize=12;dashed=1;html=1;rounded=0;" parent="1" edge="1">
          <mxGeometry width="160" relative="1" as="geometry">
            <mxPoint x="275" y="210" as="sourcePoint" />
            <mxPoint x="125" y="210" as="targetPoint" />
          </mxGeometry>
        </mxCell>
        <mxCell id="bnWEPdx6frjfCiIGxj0P-16" value="&lt;font style=&quot;font-size: 9px;&quot;&gt;show products with brief details&lt;/font&gt;" style="text;html=1;align=center;verticalAlign=middle;resizable=0;points=[];autosize=1;strokeColor=none;fillColor=none;" parent="1" vertex="1">
          <mxGeometry x="130" y="180" width="150" height="30" as="geometry" />
        </mxCell>
        <mxCell id="bnWEPdx6frjfCiIGxj0P-17" value="" style="endArrow=open;endFill=1;endSize=12;html=1;rounded=0;" parent="1" edge="1">
          <mxGeometry width="160" relative="1" as="geometry">
            <mxPoint x="125" y="239.6" as="sourcePoint" />
            <mxPoint x="275" y="239.6" as="targetPoint" />
          </mxGeometry>
        </mxCell>
        <mxCell id="bnWEPdx6frjfCiIGxj0P-19" value="&lt;font style=&quot;font-size: 9px;&quot;&gt;add items to cart&lt;/font&gt;" style="text;html=1;align=center;verticalAlign=middle;resizable=0;points=[];autosize=1;strokeColor=none;fillColor=none;" parent="1" vertex="1">
          <mxGeometry x="150" y="210" width="90" height="30" as="geometry" />
        </mxCell>
        <mxCell id="bnWEPdx6frjfCiIGxj0P-20" value="" style="endArrow=open;endFill=1;endSize=12;html=1;rounded=0;" parent="1" edge="1">
          <mxGeometry width="160" relative="1" as="geometry">
            <mxPoint x="125" y="270" as="sourcePoint" />
            <mxPoint x="275" y="270" as="targetPoint" />
          </mxGeometry>
        </mxCell>
        <mxCell id="bnWEPdx6frjfCiIGxj0P-21" value="&lt;font style=&quot;font-size: 9px;&quot;&gt;add/remove items from cart&lt;/font&gt;" style="text;html=1;align=center;verticalAlign=middle;resizable=0;points=[];autosize=1;strokeColor=none;fillColor=none;" parent="1" vertex="1">
          <mxGeometry x="135" y="240" width="130" height="30" as="geometry" />
        </mxCell>
        <mxCell id="bnWEPdx6frjfCiIGxj0P-22" value="" style="endArrow=block;endFill=1;html=1;edgeStyle=orthogonalEdgeStyle;align=left;verticalAlign=top;rounded=0;" parent="1" edge="1">
          <mxGeometry x="-1" relative="1" as="geometry">
            <mxPoint x="124.99999999999999" y="300" as="sourcePoint" />
            <mxPoint x="275" y="300" as="targetPoint" />
            <Array as="points">
              <mxPoint x="200" y="300" />
              <mxPoint x="200" y="300" />
            </Array>
          </mxGeometry>
        </mxCell>
        <mxCell id="bnWEPdx6frjfCiIGxj0P-23" value="&lt;font style=&quot;font-size: 9px;&quot;&gt;select comparison system&lt;/font&gt;" style="text;html=1;align=center;verticalAlign=middle;resizable=0;points=[];autosize=1;strokeColor=none;fillColor=none;" parent="1" vertex="1">
          <mxGeometry x="135" y="270" width="130" height="30" as="geometry" />
        </mxCell>
        <mxCell id="bnWEPdx6frjfCiIGxj0P-24" value="" style="endArrow=open;endSize=12;dashed=1;html=1;rounded=0;" parent="1" edge="1">
          <mxGeometry width="160" relative="1" as="geometry">
            <mxPoint x="275" y="330" as="sourcePoint" />
            <mxPoint x="125" y="330" as="targetPoint" />
          </mxGeometry>
        </mxCell>
        <mxCell id="bnWEPdx6frjfCiIGxj0P-26" value="&lt;font style=&quot;font-size: 9px;&quot;&gt;ask for items to compare&lt;/font&gt;" style="text;html=1;align=center;verticalAlign=middle;resizable=0;points=[];autosize=1;strokeColor=none;fillColor=none;" parent="1" vertex="1">
          <mxGeometry x="145" y="300" width="120" height="30" as="geometry" />
        </mxCell>
        <mxCell id="bnWEPdx6frjfCiIGxj0P-27" value="" style="endArrow=block;endFill=1;html=1;edgeStyle=orthogonalEdgeStyle;align=left;verticalAlign=top;rounded=0;" parent="1" edge="1">
          <mxGeometry x="-1" relative="1" as="geometry">
            <mxPoint x="125" y="370" as="sourcePoint" />
            <mxPoint x="275" y="370" as="targetPoint" />
            <Array as="points">
              <mxPoint x="200" y="370" />
              <mxPoint x="200" y="370" />
            </Array>
          </mxGeometry>
        </mxCell>
        <mxCell id="bnWEPdx6frjfCiIGxj0P-28" value="&lt;font style=&quot;font-size: 8px;&quot;&gt;select items for comparison(item name)&lt;/font&gt;" style="text;html=1;align=center;verticalAlign=middle;resizable=0;points=[];autosize=1;strokeColor=none;fillColor=none;" parent="1" vertex="1">
          <mxGeometry x="120" y="340" width="160" height="30" as="geometry" />
        </mxCell>
        <mxCell id="bnWEPdx6frjfCiIGxj0P-29" value="" style="endArrow=open;endSize=12;dashed=1;html=1;rounded=0;" parent="1" edge="1">
          <mxGeometry width="160" relative="1" as="geometry">
            <mxPoint x="275" y="410" as="sourcePoint" />
            <mxPoint x="125" y="410" as="targetPoint" />
          </mxGeometry>
        </mxCell>
        <mxCell id="bnWEPdx6frjfCiIGxj0P-30" value="&lt;font style=&quot;font-size: 9px;&quot;&gt;show comparison among items&lt;/font&gt;" style="text;html=1;align=center;verticalAlign=middle;resizable=0;points=[];autosize=1;strokeColor=none;fillColor=none;" parent="1" vertex="1">
          <mxGeometry x="125" y="380" width="150" height="30" as="geometry" />
        </mxCell>
      </root>
    </mxGraphModel>
  </diagram>
</mxfile>
